<svg xmlns="http://www.w3.org/2000/svg" viewBox="0 0 325.04 292.02"><defs><style>.cls-1{fill:#f37e53;}</style></defs><title>VisualArt</title><g id="Layer_2" data-name="Layer 2"><g id="Layer_1-2" data-name="Layer 1"><path class="cls-1" d="M84.82,194.43a26.55,26.55,0,0,0-16.4-5.69,26.28,26.28,0,0,0-20.58,9.82A26,26,0,0,0,52,235.36a26.54,26.54,0,0,0,16.39,5.69A26.27,26.27,0,0,0,89,231.22a26,26,0,0,0-4.18-36.8ZM79.65,223.7a14.45,14.45,0,0,1-20.18,2.25,14,14,0,0,1-2.27-19.87,14.47,14.47,0,0,1,20.19-2.24,14,14,0,0,1,2.27,19.86Z"/><path class="cls-1" d="M190.33,133a26.31,26.31,0,0,0,24.84-17.58A25.83,25.83,0,0,0,214,95.45a26.43,26.43,0,0,0-35.14-12.22,26.07,26.07,0,0,0-12.29,34.94A26.55,26.55,0,0,0,190.33,133Zm-13.59-30.8a14.1,14.1,0,0,1,7.3-8.11,14.43,14.43,0,0,1,19.17,6.63,13.92,13.92,0,0,1,.63,10.75,14.12,14.12,0,0,1-7.3,8.12,14.33,14.33,0,0,1-6.21,1.41,14.48,14.48,0,0,1-13-8.06A13.9,13.9,0,0,1,176.74,102.18Z"/><path class="cls-1" d="M125,90.57a26.68,26.68,0,0,0,5.87.66A26.17,26.17,0,0,0,156.57,70.9a25.89,25.89,0,0,0-3.36-19.68,26.16,26.16,0,0,0-16.48-11.64,26.67,26.67,0,0,0-5.9-.66,26.14,26.14,0,0,0-25.64,20.33,25.83,25.83,0,0,0,3.34,19.68A26.12,26.12,0,0,0,125,90.57ZM116.9,61.93a14.2,14.2,0,0,1,13.94-11,14.66,14.66,0,0,1,3.24.37,14.24,14.24,0,0,1,9,6.33,14,14,0,0,1,1.82,10.61,14.4,14.4,0,0,1-14,11,14.69,14.69,0,0,1-3.23-.36,14.21,14.21,0,0,1-9-6.33A13.91,13.91,0,0,1,116.9,61.93Z"/><path class="cls-1" d="M77.36,105.54a26.07,26.07,0,0,0,4.17-36.81,26.49,26.49,0,0,0-37-4.14,26,26,0,0,0-4.17,36.81,26.46,26.46,0,0,0,37,4.13ZM49.73,93.88A14,14,0,0,1,52,74a14.49,14.49,0,0,1,20.19,2.24,14.07,14.07,0,0,1-2.28,19.88,14.46,14.46,0,0,1-20.17-2.25Z"/><path class="cls-1" d="M322.74,46.82a7.92,7.92,0,0,0-5.81-2.29c-3.42,0-12.52,0-67.74,47l-3.35,2.86A147.24,147.24,0,0,0,108.1,0h0c-21.65,0-48,7.57-68.7,19.75C14,34.68,0,54.65,0,76c0,25.75,14.53,36.52,26.2,45.17,9.52,7.06,17,12.63,17,24.84s-7.51,17.78-17,24.83C14.55,179.47,0,190.24,0,216c0,21.32,14,41.3,39.41,56.24C60.18,284.43,86.52,292,108.18,292h0a146.82,146.82,0,0,0,104-42.72,144.34,144.34,0,0,0,43.1-101.66c9.32-10.6,18.34-21.14,26.58-31.07,14.1-17,24.93-31,32.22-41.66C323.8,60.8,328,52.14,322.74,46.82Zm-118.93,194A134.89,134.89,0,0,1,108.22,280h0C69.47,280,12,253.11,12,216c0-19.71,10.35-27.39,21.32-35.52,10.25-7.6,21.87-16.22,21.87-34.47S43.6,119.11,33.35,111.51C22.37,103.37,12,95.68,12,76c0-22.8,21-38.53,33.46-45.88C64.16,19.1,88.74,12,108.08,12h0a135.23,135.23,0,0,1,128,90.79c-26,22.72-54.21,48.92-75.19,70-34.86,4.51-39.61,27.74-43.08,44.81-3,14.53-4.87,21.56-16.09,22.46A6,6,0,0,0,100,251.56a109.88,109.88,0,0,0,37.92,7.31h0c14,0,25.95-3.39,35.61-10.06,11.91-8.23,20-21.27,24-38.77,13.71-13.87,29.38-30.6,44.88-47.84A132.44,132.44,0,0,1,203.81,240.77ZM185.48,208.9c-6.36,25.2-22.36,38-47.59,38h0a90,90,0,0,1-18.39-2c6.4-6.53,8.4-16.35,10.13-24.86,3.3-16.21,6.41-31.55,31.92-35.19Zm82.86-94.76c-23.79,28.34-52.57,60.16-76.27,84.35l-3.67-3.7L172.2,178.48c21.49-21.39,49.05-46.9,74.77-69.22h0c3-2.6,6-5.17,8.91-7.68,29.85-25.46,45.49-36.53,53.47-41.35C304.59,68.26,293.62,84,268.34,114.14Z"/></g></g></svg>