<svg xmlns="http://www.w3.org/2000/svg" viewBox="0 0 339.54 512"><defs><style>.cls-1{fill:#f37e53;}</style></defs><title>Innovation</title><g id="Layer_2" data-name="Layer 2"><g id="Layer_1-2" data-name="Layer 1"><path class="cls-1" d="M290.58,50.5A169.63,169.63,0,0,0,0,167.24,168.24,168.24,0,0,0,33.46,271c27.47,36.94,42,80,42,124.61v.54a8.08,8.08,0,0,0,8.08,8.08H97v67.24A40.6,40.6,0,0,0,137.56,512H202a40.6,40.6,0,0,0,40.55-40.55V404.21H256a8.08,8.08,0,0,0,8.08-8.08v-.55c0-44.78,14.43-87.74,41.72-124.24A169.78,169.78,0,0,0,290.58,50.5Zm-64.22,421A24.41,24.41,0,0,1,202,495.83H137.56a24.3,24.3,0,0,1-6.44-.87l95.24-23.81Zm0-17L115.66,482.16a24.23,24.23,0,0,1-2.49-10.71v-4.34l113.18-28.3v15.67Zm0-32.34-113.18,28.3V434.77l113.18-28.3Zm-113.18-4v-13.9h55.6ZM292.86,261.65C265,298.92,249.57,342.47,248,388H210.19V210.19h23.57c22,0,40.47-17.29,41.08-39.26a40.46,40.46,0,0,0-41.56-41.56c-22,.62-39.27,19.1-39.27,41.08V194H156.29V170.44c0-22-17.29-40.47-39.26-41.08a40.46,40.46,0,0,0-41.56,41.56c.62,22,19.1,39.26,41.08,39.26h23.57v62.38a8.08,8.08,0,0,0,16.17,0V210.19H194V388H156.29V311.95a8.08,8.08,0,0,0-16.17,0V388H91.49c-1.55-45.39-17-89.05-45.06-126.72a152.22,152.22,0,0,1-30.25-93.85C17.4,83.61,86.1,16.17,169.78,16.17h2.11c83.52,1.13,151.47,70,151.47,153.59A152.25,152.25,0,0,1,292.86,261.65ZM210.19,194V169.77A24.25,24.25,0,1,1,234.44,194Zm-70.06-24.25V194H115.87a24.25,24.25,0,1,1,24.25-24.25Z"/></g></g></svg>