<svg xmlns="http://www.w3.org/2000/svg" viewBox="0 0 512 503.98"><defs><style>.cls-1{fill:#f37e53;}</style></defs><title>Languages</title><g id="Layer_2" data-name="Layer 2"><g id="Layer_1-2" data-name="Layer 1"><path class="cls-1" d="M218,197.58h-64.5a10,10,0,1,0,0,20.05H207a54.48,54.48,0,1,1-15-48.54,10,10,0,0,0,14.18-14.18A74.52,74.52,0,1,0,228,207.6,10,10,0,0,0,218,197.58Z"/><path class="cls-1" d="M470.33,88.23H269.73L242.79,6.88A10,10,0,0,0,233.27,0H41.67A41.72,41.72,0,0,0,0,41.67V374.08a41.72,41.72,0,0,0,41.67,41.67H244.81l27.07,81.37A10,10,0,0,0,281.4,504H470.33A41.72,41.72,0,0,0,512,462.31V129.9A41.72,41.72,0,0,0,470.33,88.23ZM41.67,395.7a21.64,21.64,0,0,1-21.62-21.62V41.67A21.64,21.64,0,0,1,41.67,20.05H226l70.69,213.52,0,0L350.4,395.7ZM337.45,279.26c.8,1.11,10.82,14.88,26.36,34.07-4.38,5.76-9,11.47-13.91,17l-29.71-89.74h87.44a441.92,441.92,0,0,1-31.69,55.74c-13.55-16.92-22.07-28.62-22.25-28.87a10,10,0,0,0-16.23,11.77Zm-71.5,136.49h75.16l-55.5,59.08Zm226,46.56a21.64,21.64,0,0,1-21.62,21.62H304.58l67-71.34h0a9.81,9.81,0,0,0,.82-1,10,10,0,0,0,1.39-9l-16.69-50.4c7.07-7.41,13.68-15.14,19.8-23,13.3,15.77,29,33.45,45.78,50.19a10,10,0,0,0,14.18-14.18c-17.46-17.46-34-36.24-47.69-52.63a447.5,447.5,0,0,0,40.54-72h21.45a10,10,0,0,0,0-20.05H385v-18a10,10,0,0,0-20.05,0v18H313.54L276.36,108.28h194a21.64,21.64,0,0,1,21.62,21.62V462.31Z"/></g></g></svg>