<svg xmlns="http://www.w3.org/2000/svg" viewBox="0 0 512 456.12"><defs><style>.cls-1{fill:#f37e53;}</style></defs><title>ICT</title><g id="Layer_2" data-name="Layer 2"><g id="Layer_1-2" data-name="Layer 1"><path class="cls-1" d="M481.09,0H30.91A30.94,30.94,0,0,0,0,30.91V341.73a30.94,30.94,0,0,0,30.91,30.91H185.17v22.49a37.43,37.43,0,0,1-37.39,37.39h-34a11.8,11.8,0,0,0,0,23.61H398.22a11.8,11.8,0,0,0,0-23.61h-34a37.43,37.43,0,0,1-37.39-37.39V372.64H481.09A31,31,0,0,0,512,341.73V30.91A30.94,30.94,0,0,0,481.09,0ZM195.92,432.52a60.67,60.67,0,0,0,12.86-37.39V372.64h94.45v22.49a60.67,60.67,0,0,0,12.86,37.39Zm292.47-90.79a7.31,7.31,0,0,1-7.3,7.3H30.91a7.31,7.31,0,0,1-7.3-7.3v-62H488.39Zm0-85.64H23.61V30.91a7.31,7.31,0,0,1,7.3-7.3H481.09a7.31,7.31,0,0,1,7.3,7.3V256.09Z"/><circle class="cls-1" cx="256" cy="314.37" r="12.74"/><path class="cls-1" d="M276.24,81.32a11.8,11.8,0,0,0-16.69,0l-83.41,83.41a11.8,11.8,0,0,0,16.69,16.69L276.24,98A11.8,11.8,0,0,0,276.24,81.32Z"/><path class="cls-1" d="M325.68,129.66a11.8,11.8,0,0,0-16.69,0l-33.23,33.23a11.8,11.8,0,1,0,16.69,16.69l33.23-33.23A11.8,11.8,0,0,0,325.68,129.66Z"/></g></g></svg>