<svg xmlns="http://www.w3.org/2000/svg" viewBox="0 0 419.8 512"><defs><style>.cls-1{fill:#f37e53;}</style></defs><title>Interdisciplinary</title><g id="Layer_2" data-name="Layer 2"><g id="Layer_1-2" data-name="Layer 1"><path class="cls-1" d="M228.47,0C123,0,37.15,85.83,37.15,191.33v20L1.48,300.5a20.6,20.6,0,0,0,19.13,28.26H43.93a4,4,0,0,1,4,4V388.3A26.72,26.72,0,0,0,74.62,415h46a2.75,2.75,0,0,1,2.74,2.74v75.35A18.94,18.94,0,0,0,142.29,512H400.88a18.94,18.94,0,0,0,18.91-18.91V191.33C419.8,85.83,334,0,228.47,0ZM403.63,493.09h0a2.75,2.75,0,0,1-2.74,2.74H142.29a2.75,2.75,0,0,1-2.74-2.74V417.73a18.94,18.94,0,0,0-18.91-18.91h-46a10.54,10.54,0,0,1-10.53-10.53V332.75a20.19,20.19,0,0,0-20.16-20.16H20.61a4.44,4.44,0,0,1-4.12-6.08l36.25-90.62a8.09,8.09,0,0,0,.58-3V191.32c0-96.58,78.57-175.16,175.16-175.16S403.63,94.74,403.63,191.32V493.09Z"/><path class="cls-1" d="M239.25,43.12H217.69A137.43,137.43,0,0,0,80.26,180.55v42a19.94,19.94,0,0,0,19.94,19.94H112.6V270.6a29.64,29.64,0,1,0,16.17,0V242.53h91.62V356.84a29.64,29.64,0,1,0,16.17,0V242.53h14.63a8.08,8.08,0,0,0,0-16.17h-151a3.78,3.78,0,0,1-3.78-3.78V199.41h45.18c16.13,0,29.78-12.62,30.26-28.74a29.68,29.68,0,0,0-29.63-30.54H131.8a8.31,8.31,0,0,0-8.42,7.84,8.08,8.08,0,0,0,8.08,8.33h10.38a13.74,13.74,0,0,1,13.81,12.18,13.49,13.49,0,0,1-13.41,14.77H96.43v-2.7A121.26,121.26,0,0,1,217.7,59.28h13.47v66.93a13.77,13.77,0,0,1-13,13.91,13.49,13.49,0,0,1-14-13.23,8.31,8.31,0,0,0-7.26-8.28,8.09,8.09,0,0,0-8.91,8,29.67,29.67,0,0,0,30.54,29.63c16.12-.48,28.74-14.13,28.74-30.26v-16.1A29.62,29.62,0,0,0,290.45,84.1a8.33,8.33,0,0,0-7.24-8.61,8.09,8.09,0,0,0-8.92,8A13.49,13.49,0,0,1,259.51,97a13.74,13.74,0,0,1-12.17-13.81V59.56a121.53,121.53,0,0,1,106.24,80.57H315.34c-16.13,0-29.78,12.62-30.26,28.74a29.67,29.67,0,0,0,29.63,30.54h10.44a8.31,8.31,0,0,0,8.42-7.84,8.08,8.08,0,0,0-8.08-8.33H315.1a13.74,13.74,0,0,1-13.81-12.18,13.49,13.49,0,0,1,13.41-14.77h43.37a121.29,121.29,0,0,1,2.44,24.27v42a3.78,3.78,0,0,1-3.78,3.78H290.56a8.08,8.08,0,1,0,0,16.17h37.61V270.6a29.64,29.64,0,1,0,16.17,0V242.53h12.39a19.94,19.94,0,0,0,19.94-19.94v-42A137.43,137.43,0,0,0,239.25,43.12Zm2.69,342.23a13.47,13.47,0,1,1-13.47-13.47A13.49,13.49,0,0,1,241.95,385.35ZM134.16,299.12a13.47,13.47,0,1,1-13.47-13.47A13.49,13.49,0,0,1,134.16,299.12Zm215.58,0a13.47,13.47,0,1,1-13.47-13.47A13.49,13.49,0,0,1,349.74,299.12Z"/></g></g></svg>