<svg xmlns="http://www.w3.org/2000/svg" viewBox="0 0 512 365.03"><defs><style>.cls-1{fill:#f37e53;}</style></defs><title>Leadership</title><g id="Layer_2" data-name="Layer 2"><g id="Layer_1-2" data-name="Layer 1"><path class="cls-1" d="M330.4,192.4a8.26,8.26,0,0,0-6.67-5.63l-41.68-6.06L263.41,143a8.27,8.27,0,0,0-14.83,0l-18.64,37.77-41.68,6.06a8.27,8.27,0,0,0-4.58,14.1l30.16,29.4-7.12,41.51a8.27,8.27,0,0,0,12,8.71L256,260.91l37.28,19.6a8.27,8.27,0,0,0,12-8.71l-7.12-41.51,30.16-29.4A8.27,8.27,0,0,0,330.4,192.4Zm-46.9,29.07a8.26,8.26,0,0,0-2.38,7.32l5,29.29-26.3-13.83a8.27,8.27,0,0,0-7.69,0l-26.3,13.83,5-29.29a8.26,8.26,0,0,0-2.38-7.32l-21.28-20.74,29.41-4.27a8.26,8.26,0,0,0,6.22-4.52L256,165.29l13.15,26.65a8.27,8.27,0,0,0,6.22,4.52l29.41,4.27Z"/><path class="cls-1" d="M117.12,144.5A82,82,0,0,0,194.35,90a8.27,8.27,0,0,0-5-10.55,81.29,81.29,0,0,0-62.24,3.14,186.29,186.29,0,0,1,16.41-18.78,8.27,8.27,0,0,0-11.69-11.69q-6.39,6.39-12.07,13.21A81.74,81.74,0,0,0,85.43,1.53,8.27,8.27,0,0,0,73.9,3.48,81.82,81.82,0,0,0,89.25,114.66a201.11,201.11,0,0,0-7.14,19.19,83.13,83.13,0,0,0-5.68-10.58,81.31,81.31,0,0,0-51.24-36,8.27,8.27,0,0,0-9.87,6.26,81.94,81.94,0,0,0,57.45,96.58,203.65,203.65,0,0,0,1.08,26.26q-2.88-2.56-6-4.87A81.32,81.32,0,0,0,7,196.51,8.27,8.27,0,0,0,.1,205.93a81.88,81.88,0,0,0,80.73,69.51,82.82,82.82,0,0,0,8.34-.44,200.37,200.37,0,0,0,11.7,23,81.83,81.83,0,0,0-77,14.53,8.27,8.27,0,0,0-1.16,11.63A81.31,81.31,0,0,0,78,353.75q4.15.41,8.26.41a81.09,81.09,0,0,0,47-15,203.45,203.45,0,0,0,30.24,24.47,8.27,8.27,0,0,0,9.11-13.8,186.94,186.94,0,0,1-29.1-23.77,184.36,184.36,0,0,1-43.28-68.17,81.94,81.94,0,0,0,49.08-99.3A8.27,8.27,0,0,0,139,153,81.31,81.31,0,0,0,90.2,192.25c-.33.61-.64,1.23-1,1.85a186.53,186.53,0,0,1,7.67-52.16A81.22,81.22,0,0,0,117.12,144.5ZM72.41,172.59a65.46,65.46,0,0,1-42.3-66.71,64.81,64.81,0,0,1,32.36,26.24A64.82,64.82,0,0,1,72.41,172.59ZM42.32,246.2a64.82,64.82,0,0,1-24-34.09h1.05A65.47,65.47,0,0,1,82,258.89,64.9,64.9,0,0,1,42.32,246.2Zm37.29,91.1a64.82,64.82,0,0,1-38-17.13,65.46,65.46,0,0,1,78.6,7.83A64.85,64.85,0,0,1,79.61,337.29Zm25.1-137.1a64.83,64.83,0,0,1,30.61-28.26,65.46,65.46,0,0,1-37.93,69.28A64.83,64.83,0,0,1,104.7,200.19ZM133.88,97.62a64.82,64.82,0,0,1,41.36-5,65.45,65.45,0,0,1-71.29,34A64.83,64.83,0,0,1,133.88,97.62ZM76.18,61.78a64.81,64.81,0,0,1,6.53-41.15A65.46,65.46,0,0,1,95.83,98.52,64.81,64.81,0,0,1,76.18,61.78Z"/><path class="cls-1" d="M431.17,275.43a81.88,81.88,0,0,0,80.73-69.51,8.27,8.27,0,0,0-6.92-9.42,81.71,81.71,0,0,0-66.84,19.89,203.81,203.81,0,0,0,1.09-26.31A81.83,81.83,0,0,0,496.67,93.5a8.27,8.27,0,0,0-9.87-6.26,81.3,81.3,0,0,0-51.24,36,83.15,83.15,0,0,0-5.68,10.58,201,201,0,0,0-7.14-19.19A81.94,81.94,0,0,0,438.1,3.47a8.27,8.27,0,0,0-11.53-1.94,81.31,81.31,0,0,0-33.25,53.09,83.28,83.28,0,0,0-1.08,10.63q-5.68-6.78-12-13.16a8.27,8.27,0,1,0-11.69,11.69,186.27,186.27,0,0,1,16.41,18.78,81.29,81.29,0,0,0-62.24-3.14,8.27,8.27,0,0,0-5,10.55,82,82,0,0,0,77.23,54.53,81.24,81.24,0,0,0,20.2-2.56,186.57,186.57,0,0,1,7.67,52.24A81.6,81.6,0,0,0,373,153a8.27,8.27,0,0,0-10.25,5.62,81.81,81.81,0,0,0,49.07,99.3,184.39,184.39,0,0,1-43.28,68.17,186.89,186.89,0,0,1-29.1,23.77,8.27,8.27,0,1,0,9.11,13.8,203.39,203.39,0,0,0,30.25-24.48,81.91,81.91,0,0,0,110.47-15,8.27,8.27,0,0,0-1.16-11.63,81.32,81.32,0,0,0-60-18.12,82.66,82.66,0,0,0-16.95,3.52A200.29,200.29,0,0,0,422.84,275,82.74,82.74,0,0,0,431.17,275.43ZM481.9,105.89a65.37,65.37,0,0,1-42.3,66.71A65.46,65.46,0,0,1,481.9,105.89Zm11.73,106.21A65.49,65.49,0,0,1,430,258.88,65.43,65.43,0,0,1,493.63,212.11ZM336.76,92.6a65.36,65.36,0,0,1,71.29,34A65.45,65.45,0,0,1,336.76,92.6Zm79.4,5.91a65.36,65.36,0,0,1,13.12-77.89A65.46,65.46,0,0,1,416.16,98.52Zm13.6,212.34a64.81,64.81,0,0,1,40.61,9.3,65.46,65.46,0,0,1-78.6,7.83A64.82,64.82,0,0,1,429.76,310.86Zm-15.16-69.64a65.37,65.37,0,0,1-37.93-69.28A65.46,65.46,0,0,1,414.61,241.21Z"/></g></g></svg>