<svg xmlns="http://www.w3.org/2000/svg" viewBox="0 0 512 512"><defs><style>.cls-1{fill:#f37e53;}</style></defs><title>Mathematics</title><g id="Layer_2" data-name="Layer 2"><g id="Layer_1-2" data-name="Layer 1"><path class="cls-1" d="M486.4,460.8h-8.53V25.6a25.6,25.6,0,0,0-51.2,0V51.2h-25.6a25.6,25.6,0,0,0-51.2,0H332.8a25.6,25.6,0,0,0-51.2,0H264.53a25.6,25.6,0,0,0-51.2,0H179.2a25.6,25.6,0,0,0-51.2,0H85.33V25.6A25.14,25.14,0,0,0,59.73,0a25.14,25.14,0,0,0-25.6,25.6V460.8H25.6A25.14,25.14,0,0,0,0,486.4v17.07C0,508.59,3.41,512,8.53,512h102.4c5.12,0,8.53-3.41,8.53-8.53V486.4a25.14,25.14,0,0,0-25.6-25.6H85.33V401.07h25.6a25.6,25.6,0,0,0,51.2,0h34.13a25.6,25.6,0,0,0,51.2,0h42.67a25.6,25.6,0,1,0,51.2,0H358.4a25.6,25.6,0,0,0,51.2,0h17.07V460.8h-8.53a25.14,25.14,0,0,0-25.6,25.6v17.07c0,5.12,3.41,8.53,8.53,8.53h102.4c5.12,0,8.53-3.41,8.53-8.53V486.4A25.14,25.14,0,0,0,486.4,460.8ZM375.47,281.6v-8.53c0-5.12,3.41-8.53,8.53-8.53a8.55,8.55,0,0,1,8.53,8.53v17.07c0,5.12-3.41,8.53-8.53,8.53s-8.53-3.41-8.53-8.53ZM384,247.47a25.14,25.14,0,0,0-25.6,25.6H341.33a25.6,25.6,0,0,0-51.2,0H273.07a25.6,25.6,0,0,0-51.2,0H204.8a25.6,25.6,0,0,0-51.2,0H85.33V179.2H102.4a25.6,25.6,0,1,0,51.2,0h17.07a25.6,25.6,0,1,0,51.2,0h17.07a25.6,25.6,0,1,0,51.2,0H307.2a25.6,25.6,0,1,0,51.2,0h68.27v93.87H409.6A25.14,25.14,0,0,0,384,247.47ZM307.2,281.6v-8.53c0-5.12,3.41-8.53,8.53-8.53a8.55,8.55,0,0,1,8.53,8.53v17.07c0,5.12-3.41,8.53-8.53,8.53s-8.53-3.41-8.53-8.53Zm-68.27,0v-8.53c0-5.12,3.41-8.53,8.53-8.53a8.55,8.55,0,0,1,8.53,8.53v17.07c0,5.12-3.41,8.53-8.53,8.53s-8.53-3.41-8.53-8.53V281.6Zm-68.27,0v-8.53c0-5.12,3.41-8.53,8.53-8.53a8.55,8.55,0,0,1,8.53,8.53v17.07c0,5.12-3.41,8.53-8.53,8.53s-8.53-3.41-8.53-8.53ZM136.53,170.67v8.53c0,5.12-3.41,8.53-8.53,8.53s-8.53-3.41-8.53-8.53V162.13c0-5.12,3.41-8.53,8.53-8.53a8.55,8.55,0,0,1,8.53,8.53Zm68.27,0v8.53c0,5.12-3.41,8.53-8.53,8.53s-8.53-3.41-8.53-8.53V162.13c0-5.12,3.41-8.53,8.53-8.53a8.55,8.55,0,0,1,8.53,8.53Zm68.27,0v8.53c0,5.12-3.41,8.53-8.53,8.53S256,184.32,256,179.2V162.13c0-5.12,3.41-8.53,8.53-8.53a8.55,8.55,0,0,1,8.53,8.53v8.53Zm68.27,0v8.53c0,5.12-3.41,8.53-8.53,8.53s-8.53-3.41-8.53-8.53V162.13c0-5.12,3.41-8.53,8.53-8.53a8.55,8.55,0,0,1,8.53,8.53ZM366.93,51.2c0-5.12,3.41-8.53,8.53-8.53A8.55,8.55,0,0,1,384,51.2V68.27c0,5.12-3.41,8.53-8.53,8.53s-8.53-3.41-8.53-8.53V51.2Zm-68.27,0c0-5.12,3.41-8.53,8.53-8.53a8.55,8.55,0,0,1,8.53,8.53V68.27c0,5.12-3.41,8.53-8.53,8.53s-8.53-3.41-8.53-8.53Zm-68.27,0c0-5.12,3.41-8.53,8.53-8.53a8.55,8.55,0,0,1,8.53,8.53V68.27c0,5.12-3.41,8.53-8.53,8.53s-8.53-3.41-8.53-8.53Zm-85.33,0c0-5.12,3.41-8.53,8.53-8.53a8.55,8.55,0,0,1,8.53,8.53V68.27c0,5.12-3.41,8.53-8.53,8.53s-8.53-3.41-8.53-8.53ZM128,68.27a25.6,25.6,0,0,0,51.2,0h34.13a25.6,25.6,0,0,0,51.2,0H281.6a25.6,25.6,0,0,0,51.2,0h17.07a25.6,25.6,0,0,0,51.2,0h25.6v93.87H358.4a25.6,25.6,0,0,0-51.2,0H290.13a25.6,25.6,0,0,0-51.2,0H221.87a25.6,25.6,0,0,0-51.2,0H153.6a25.6,25.6,0,1,0-51.2,0H85.33V68.27ZM102.4,486.4v8.53H17.07V486.4c0-5.12,3.41-8.53,8.53-8.53H93.87C99,477.87,102.4,481.28,102.4,486.4ZM51.2,460.8V25.6a8.55,8.55,0,0,1,8.53-8.53c5.12,0,8.53,3.41,8.53,8.53V460.8Zm93.87-59.73c0,5.12-3.41,8.53-8.53,8.53s-8.53-3.41-8.53-8.53V384c0-5.12,3.41-8.53,8.53-8.53a8.55,8.55,0,0,1,8.53,8.53v17.07Zm85.33,0c0,5.12-3.41,8.53-8.53,8.53s-8.53-3.41-8.53-8.53V384c0-5.12,3.41-8.53,8.53-8.53A8.55,8.55,0,0,1,230.4,384Zm93.87,0c0,5.12-3.41,8.53-8.53,8.53s-8.53-3.41-8.53-8.53V384c0-5.12,3.41-8.53,8.53-8.53a8.55,8.55,0,0,1,8.53,8.53Zm68.27,0c0,5.12-3.41,8.53-8.53,8.53s-8.53-3.41-8.53-8.53V384c0-5.12,3.41-8.53,8.53-8.53a8.55,8.55,0,0,1,8.53,8.53ZM409.6,384a25.6,25.6,0,0,0-51.2,0H341.33a25.6,25.6,0,0,0-51.2,0H247.47a25.6,25.6,0,0,0-51.2,0H162.13a25.6,25.6,0,1,0-51.2,0H85.33V290.13H153.6a25.6,25.6,0,0,0,51.2,0h17.07a25.6,25.6,0,1,0,51.2,0h17.07a25.6,25.6,0,1,0,51.2,0H358.4a25.6,25.6,0,0,0,51.2,0h17.07V384Zm34.13-102.4V25.6c0-5.12,3.41-8.53,8.53-8.53s8.53,3.41,8.53,8.53V460.8H443.73V281.6Zm51.2,213.33H409.6V486.4c0-5.12,3.41-8.53,8.53-8.53H486.4c5.12,0,8.53,3.41,8.53,8.53v8.53Z"/></g></g></svg>