<svg xmlns="http://www.w3.org/2000/svg" viewBox="0 0 512 438.85"><defs><style>.cls-1{fill:#f37e53;}</style></defs><title>PerformingArts</title><g id="Layer_2" data-name="Layer 2"><g id="Layer_1-2" data-name="Layer 1"><path class="cls-1" d="M167.66,136.6A60.44,60.44,0,0,0,107.29,197a8.69,8.69,0,0,0,11.24,8.31,166.93,166.93,0,0,1,98.26,0A8.69,8.69,0,0,0,228,197,60.44,60.44,0,0,0,167.66,136.6Zm0,43.9a184.13,184.13,0,0,0-41.35,4.71,43,43,0,0,1,82.71,0A184.35,184.35,0,0,0,167.66,180.5Z"/><path class="cls-1" d="M344.34,136.6A60.44,60.44,0,0,0,284,197a8.69,8.69,0,0,0,11.24,8.31,166.94,166.94,0,0,1,98.25,0A8.69,8.69,0,0,0,404.71,197,60.44,60.44,0,0,0,344.34,136.6Zm0,43.9A184.23,184.23,0,0,0,303,185.21a43,43,0,0,1,82.69,0A184.18,184.18,0,0,0,344.34,180.5Z"/><path class="cls-1" d="M354.28,251.2a8.7,8.7,0,0,0-7.72-1.32,307.75,307.75,0,0,1-181.13,0,8.69,8.69,0,0,0-11.24,8.31,101.81,101.81,0,0,0,203.61,0A8.7,8.7,0,0,0,354.28,251.2ZM256,342.61a84.55,84.55,0,0,1-83.6-72.66,324.82,324.82,0,0,0,167.21,0A84.55,84.55,0,0,1,256,342.61Z"/><path class="cls-1" d="M503.31,310.22a28.08,28.08,0,0,1-28.05-28.05V189.29a45.49,45.49,0,0,0-45.2-45.43V29a8.69,8.69,0,0,0-6.58-8.43,692.93,692.93,0,0,0-334.94,0A8.69,8.69,0,0,0,81.94,29V143.86a45.49,45.49,0,0,0-45.2,45.43v92.88A28.08,28.08,0,0,1,8.69,310.22a8.69,8.69,0,0,0,0,17.39,45.49,45.49,0,0,0,45.44-45.44V189.29a28.08,28.08,0,0,1,27.81-28V264.79c0,96,78.08,174.06,174.06,174.06s174.06-78.08,174.06-174.06V161.24a28.08,28.08,0,0,1,27.81,28v92.88a45.49,45.49,0,0,0,45.44,45.44,8.69,8.69,0,0,0,0-17.39Zm-90.64-45.43c0,86.39-70.28,156.67-156.67,156.67S99.33,351.18,99.33,264.79V35.8a675.62,675.62,0,0,1,313.34,0v229Z"/></g></g></svg>