<svg xmlns="http://www.w3.org/2000/svg" viewBox="0 0 512 512"><defs><style>.cls-1{fill:#f37e53;}</style></defs><title>Sports</title><g id="Layer_2" data-name="Layer 2"><g id="Capa_1" data-name="Capa 1"><g id="Football-ball"><path id="Football-ball-2" data-name="Football-ball" class="cls-1" d="M256,0C114.84,0,0,114.84,0,256S114.84,512,256,512,512,397.16,512,256,397.16,0,256,0ZM493,293.85l-31.08-51.51,21.45-63A239.24,239.24,0,0,1,493,293.85ZM432.53,418.38a8,8,0,0,0-3.26-.16l-77.42,12.42a7.94,7.94,0,0,0-1-2.76l-44-73.36L378,244.92h67.42a7.93,7.93,0,0,0,.84,2.5l41.89,69.42A239.65,239.65,0,0,1,432.53,418.38Zm-80.68,28.46,61.5-9.86a239.66,239.66,0,0,1-93.65,50.37ZM101.2,72.8a238.86,238.86,0,0,1,149-56.66,7.86,7.86,0,0,0,1.92,3l44.2,41.71-17.48,65.25L165,169.83a7.88,7.88,0,0,0-1.23-1l-71-37.61ZM307.09,49,272.82,16.66A238.1,238.1,0,0,1,360.74,40.1ZM175.44,309.9l-6.53-124.43L285.24,140.8l78.42,96.85L295.8,342.15Zm299-153.13a7.46,7.46,0,0,0-.74,1.27l-24.12,70.88H377.19L295.06,127.5,312,64.4l66.16-11a7.83,7.83,0,0,0,3.62-1.74A241.6,241.6,0,0,1,474.44,156.77Zm-392-66.31-6.42,44.49-42.79,31.8A240.28,240.28,0,0,1,82.49,90.46ZM24.45,193a6.86,6.86,0,0,0,1-.54l61.9-46L152.66,181l7.1,135.49c0,.2.1.38.13.58l-61.68,61A7.68,7.68,0,0,0,97,379.93L37.87,354.56a6.87,6.87,0,0,0-.68-.14A239.08,239.08,0,0,1,24.45,193ZM48.62,376.58l43.32,18.58L125.07,457A241.78,241.78,0,0,1,48.62,376.58Zm102.07,95a7.54,7.54,0,0,0-.46-1.54L107.7,390.68a7.62,7.62,0,0,0,1.76-1.16L173.67,326l116.06,31.1,47.42,79a7.94,7.94,0,0,0,1.42,1.74L295,492.79A239.21,239.21,0,0,1,150.7,471.61Z"/></g></g></g></svg>