<svg xmlns="http://www.w3.org/2000/svg" viewBox="0 0 512 456.38"><defs><style>.cls-1{fill:#f37e53;}</style></defs><title>STEM</title><g id="Layer_2" data-name="Layer 2"><g id="Layer_1-2" data-name="Layer 1"><path class="cls-1" d="M434.17,153c-9.64-3.71-19.93-7.07-30.74-10.09,2.79-10.88,5-21.47,6.63-31.67,8.38-53.11-.88-90.37-26.06-104.91A49.32,49.32,0,0,0,359,0c-29.28,0-66.29,21.75-103.62,58.48-8.15-8-16.35-15.37-24.51-22C189.06,2.7,152.16-7.92,127,6.62,110.79,16,101,35,98.52,61.8a8.17,8.17,0,1,0,16.27,1.48c1.35-14.81,6-34.2,20.36-42.51,18.64-10.76,49.78-.4,85.44,28.44,7.78,6.29,15.59,13.31,23.38,21a529.17,529.17,0,0,0-46.2,57,525.64,525.64,0,0,0-74.39,11.93,296.74,296.74,0,0,1-8.16-44.48A8.17,8.17,0,1,0,99,96.24a312.51,312.51,0,0,0,8.62,47c-10.45,2.95-20.4,6.22-29.75,9.82C27.64,172.35,0,199,0,228.07s27.64,55.72,77.83,75c9.64,3.71,19.93,7.07,30.74,10.09-2.79,10.88-5,21.47-6.63,31.67-8.38,53.11.88,90.37,26.06,104.91a49.32,49.32,0,0,0,25,6.37c28.95,0,65.44-21.26,102.33-57.23,7.9,7.72,15.84,14.83,23.75,21.22,29.59,23.93,56.71,36.24,79,36.24A49.08,49.08,0,0,0,383,450c25.18-14.54,34.44-51.8,26.06-104.91-1.61-10.2-3.84-20.79-6.63-31.67a314,314,0,0,0,46-16.3,8.17,8.17,0,1,0-6.75-14.88A298.21,298.21,0,0,1,398,297.73a525.79,525.79,0,0,0-26.12-68.42,528.13,528.13,0,0,0,27.17-70.74c60.64,17,96.57,43.79,96.57,69.5,0,16.61-14.48,30.31-26.63,38.88a8.17,8.17,0,0,0,9.42,13.35c22-15.49,33.56-33.55,33.56-52.24,0-29.08-27.64-55.72-77.83-75ZM359,16.34a33.21,33.21,0,0,1,16.84,4.18c18.64,10.76,25.24,42.92,18.09,88.22-1.53,9.7-3.65,19.78-6.31,30.14A528.35,528.35,0,0,0,313,127.08,527,527,0,0,0,266.8,70.15q4.34-4.28,8.68-8.28C307.34,32.51,337,16.34,359,16.34ZM255.4,81.87a495.61,495.61,0,0,1,36.3,43.69q-17.6-1-35.7-1c-12.45,0-24.77.35-36.88,1A505.44,505.44,0,0,1,255.4,81.87Zm-.06,293.75a494.72,494.72,0,0,1-37.57-45.17c12.54.73,25.31,1.11,38.22,1.11,12.44,0,24.76-.36,36.9-1.06a502.59,502.59,0,0,1-37.55,45.12Zm.66-60.4c-17.56,0-34.4-.68-50.45-1.94-9-13.16-17.74-27-26-41.38-8.17-14.16-15.69-28.44-22.5-42.65,7.07-14.88,14.93-29.86,23.53-44.75,8.32-14.41,17.16-28.39,26.34-41.73,15.66-1.2,32.06-1.84,49.14-1.84,16.64,0,32.63.61,47.93,1.75,9.19,13.36,18.07,27.44,26.52,42.07,8.55,14.81,16.38,29.72,23.42,44.53-6.77,14.1-14.26,28.28-22.4,42.37C323.17,286,314.35,300,305.19,313.3c-16,1.26-32.5,1.92-49.19,1.92Zm-71.48-4a488.32,488.32,0,0,1-55.78-9.6,493.66,493.66,0,0,1,19.53-53.15q8,15.83,17.08,31.58Q174.61,296.11,184.52,311.24Zm1.3-166.49q-10,15.23-19.44,31.57-9.69,16.79-18.17,33.69a501.16,501.16,0,0,1-20.47-55.28,488.43,488.43,0,0,1,58.08-10ZM16.34,228.07c0-25.57,35.55-52.24,95.6-69.23a533.2,533.2,0,0,0,27,70.42,525.47,525.47,0,0,0-26,68.31C52.27,280.6,16.34,253.78,16.34,228.07ZM153,439.8a33.21,33.21,0,0,1-16.83-4.18c-18.64-10.76-25.24-42.92-18.09-88.22,1.53-9.7,3.65-19.78,6.31-30.14a525.47,525.47,0,0,0,72.09,11.57,526.59,526.59,0,0,0,47.42,58.44q-3.68,3.6-7.36,7C204.66,423.64,175,439.8,153,439.8ZM392.9,347.66c7.15,45.3.55,77.45-18.09,88.22s-49.78.4-85.44-28.44c-7.51-6.07-15-12.82-22.56-20.15a527,527,0,0,0,47.46-58.37,533.55,533.55,0,0,0,72.32-11.45C389.24,327.85,391.37,337.94,392.9,347.66Zm-10.71-45.92a501.49,501.49,0,0,1-55.93,9.53q9.94-15.17,19.36-31.45,9-15.61,17-31.33a493.69,493.69,0,0,1,19.59,53.25Zm-19.52-91.66q-8.42-16.76-18.07-33.5-9.51-16.47-19.69-32a491.19,491.19,0,0,1,58.35,9.89A496.41,496.41,0,0,1,362.67,210.08Z"/><path class="cls-1" d="M256,187.22a40.85,40.85,0,1,0,40.85,40.85A40.9,40.9,0,0,0,256,187.22Zm0,65.36a24.51,24.51,0,1,1,24.51-24.51A24.54,24.54,0,0,1,256,252.58Z"/></g></g></svg>