<svg xmlns="http://www.w3.org/2000/svg" viewBox="36.654 22.243 28.9 28.6">
  <defs>
    <style>
      .cls-1 {
        fill: #f8b238;
      }
    </style>
  </defs>
  <g id="Logo" transform="translate(-419.746 -514.457)">
    <g id="Group_7" data-name="Group 7">
      <path id="Path_1" data-name="Path 1" class="cls-1" d="M459.9,542.8a14.309,14.309,0,0,1,8.2,0l.3-1.2a15.006,15.006,0,0,0-8.9,0Z"/>
      <path id="Path_2" data-name="Path 2" class="cls-1" d="M459.6,546l.3,1.2a14.309,14.309,0,0,1,8.2,0l.4-1.2a16.8,16.8,0,0,0-8.9,0Z"/>
      <path id="Path_3" data-name="Path 3" class="cls-1" d="M459.6,550.4l.3,1.2a14.309,14.309,0,0,1,8.2,0l.4-1.2a15,15,0,0,0-8.9,0Z"/>
      <path id="Path_4" data-name="Path 4" class="cls-1" d="M459.5,554.7l.4,1.2a14.309,14.309,0,0,1,8.2,0l.3-1.2a16.8,16.8,0,0,0-8.9,0Z"/>
      <path id="Path_5" data-name="Path 5" class="cls-1" d="M473.3,541.6l.4,1.2a14.309,14.309,0,0,1,8.2,0l.3-1.2a15.006,15.006,0,0,0-8.9,0Z"/>
      <path id="Path_6" data-name="Path 6" class="cls-1" d="M473.3,546l.3,1.2a14.307,14.307,0,0,1,8.2,0l.3-1.2a14.678,14.678,0,0,0-8.8,0Z"/>
      <path id="Path_7" data-name="Path 7" class="cls-1" d="M473.3,550.3l.4,1.2a14.309,14.309,0,0,1,8.2,0l.3-1.2a15.006,15.006,0,0,0-8.9,0Z"/>
      <path id="Path_8" data-name="Path 8" class="cls-1" d="M484.8,538.2a21.52,21.52,0,0,0-7.1-1.5,20.064,20.064,0,0,0-6.9,1.4,20.064,20.064,0,0,0-6.9-1.4,19.236,19.236,0,0,0-7.1,1.5.675.675,0,0,0-.4.6v21.8c0,.6.6.6.8.6a18.67,18.67,0,0,1,6.7-1.4,19.089,19.089,0,0,1,6.7,1.4h.4a26.708,26.708,0,0,0,2.6-.9,2.7,2.7,0,0,0,.7.8,4.573,4.573,0,0,0,6,.4l3.8,3.8.9-.9-3.8-3.8c.1-.2.2-.3.3-.5l3,1a.569.569,0,0,0,.8-.6V538.7C485.2,538.5,485.1,538.2,484.8,538.2Zm-14.6,21.5a17.77,17.77,0,0,0-6.3-1.2,20.33,20.33,0,0,0-6.3,1.2V539.2a15.915,15.915,0,0,1,12.6,0Zm5,.5a3.441,3.441,0,0,1,0-4.8,3.394,3.394,0,1,1,4.8,4.8A3.441,3.441,0,0,1,475.2,560.2Zm8.8-.5c-.5-.2-1.4-.4-2.1-.6a4.694,4.694,0,0,0-1.2-4.5,4.567,4.567,0,0,0-7.6,4.6c-.5.2-1.3.4-1.8.6V539.3a17.259,17.259,0,0,1,6.4-1.3,18.1,18.1,0,0,1,6.2,1.3v20.4Z"/>
    </g>
  </g>
</svg>
