<?xml version="1.0" encoding="utf-8"?>
<!-- Generator: Adobe Illustrator 21.0.2, SVG Export Plug-In . SVG Version: 6.00 Build 0)  -->
<svg version="1.1" id="Layer_1" xmlns="http://www.w3.org/2000/svg" xmlns:xlink="http://www.w3.org/1999/xlink" x="0px" y="0px"
	 viewBox="0 0 256 28.6" style="enable-background:new 0 0 256 28.6;" xml:space="preserve">
<style type="text/css">
	.st0{enable-background:new    ;}
	.st1{fill:#FFFFFF;}
	.st2{fill:#F8B238;}
</style>
<g id="Logo" transform="translate(8488 4440)">
	<g class="st0">
		<path class="st1" d="M-8417.8-4431.4c0,0.1-0.1,0.1-0.2,0.1c-0.1,0-0.2,0-0.3-0.1s-0.3-0.2-0.4-0.3s-0.4-0.2-0.7-0.3
			c-0.3-0.1-0.6-0.2-1-0.2s-0.8,0.1-1.1,0.2s-0.6,0.3-0.8,0.5s-0.4,0.4-0.5,0.7c-0.1,0.3-0.2,0.5-0.2,0.8c0,0.4,0.1,0.7,0.2,1
			c0.2,0.3,0.4,0.5,0.6,0.6c0.3,0.2,0.6,0.3,0.9,0.4c0.3,0.1,0.7,0.2,1,0.4c0.4,0.1,0.7,0.2,1,0.4s0.6,0.3,0.9,0.5
			c0.3,0.2,0.5,0.5,0.6,0.8c0.2,0.3,0.2,0.7,0.2,1.2s-0.1,0.9-0.2,1.3s-0.4,0.8-0.7,1.1c-0.3,0.3-0.7,0.6-1.1,0.7s-1,0.3-1.5,0.3
			c-0.7,0-1.4-0.1-1.9-0.4s-1-0.6-1.4-1.1l0.2-0.4c0.1-0.1,0.1-0.1,0.2-0.1c0,0,0.1,0,0.2,0.1c0.1,0.1,0.2,0.1,0.3,0.2
			s0.2,0.2,0.4,0.3c0.1,0.1,0.3,0.2,0.5,0.3c0.2,0.1,0.4,0.2,0.7,0.2c0.3,0.1,0.5,0.1,0.9,0.1s0.8-0.1,1.2-0.2s0.7-0.3,0.9-0.6
			c0.2-0.2,0.4-0.5,0.6-0.8c0.1-0.3,0.2-0.7,0.2-1c0-0.4-0.1-0.7-0.2-1c-0.2-0.3-0.4-0.5-0.6-0.6c-0.3-0.2-0.6-0.3-0.9-0.4
			s-0.7-0.2-1-0.3c-0.4-0.1-0.7-0.2-1-0.4c-0.3-0.1-0.6-0.3-0.9-0.5c-0.3-0.2-0.5-0.5-0.6-0.8c-0.2-0.3-0.2-0.7-0.2-1.2
			c0-0.4,0.1-0.7,0.2-1.1s0.4-0.7,0.6-0.9c0.3-0.3,0.6-0.5,1-0.6c0.4-0.2,0.9-0.2,1.4-0.2c0.6,0,1.1,0.1,1.6,0.3
			c0.5,0.2,0.9,0.5,1.3,0.9L-8417.8-4431.4z"/>
		<path class="st1" d="M-8400.3-4423.4c0.1,0,0.1,0,0.1,0.1l0.3,0.3c-0.2,0.3-0.5,0.5-0.8,0.7s-0.6,0.4-0.9,0.5
			c-0.3,0.1-0.7,0.3-1.1,0.3c-0.4,0.1-0.8,0.1-1.3,0.1c-0.8,0-1.5-0.1-2.2-0.4s-1.2-0.7-1.7-1.2s-0.8-1.1-1.1-1.8
			c-0.3-0.7-0.4-1.5-0.4-2.4s0.1-1.6,0.4-2.4c0.3-0.7,0.6-1.3,1.1-1.8s1.1-0.9,1.8-1.2c0.7-0.3,1.4-0.4,2.3-0.4c0.4,0,0.8,0,1.1,0.1
			s0.7,0.1,1,0.3c0.3,0.1,0.6,0.3,0.8,0.4s0.5,0.4,0.8,0.6l-0.2,0.4c0,0.1-0.1,0.1-0.2,0.1c0,0-0.1,0-0.2-0.1
			c-0.1-0.1-0.2-0.1-0.3-0.2s-0.3-0.2-0.4-0.3c-0.2-0.1-0.4-0.2-0.6-0.3c-0.2-0.1-0.5-0.2-0.8-0.2c-0.3-0.1-0.6-0.1-1-0.1
			c-0.7,0-1.3,0.1-1.9,0.4s-1.1,0.6-1.5,1s-0.7,1-1,1.6c-0.2,0.6-0.3,1.3-0.3,2.1c0,0.8,0.1,1.5,0.3,2.1s0.5,1.2,1,1.6
			s0.9,0.8,1.4,1c0.6,0.2,1.2,0.3,1.8,0.3c0.4,0,0.8,0,1.1-0.1s0.6-0.1,0.9-0.2c0.3-0.1,0.5-0.2,0.7-0.4c0.2-0.2,0.5-0.3,0.7-0.5
			C-8400.5-4423.3-8400.4-4423.3-8400.3-4423.4C-8400.4-4423.4-8400.4-4423.4-8400.3-4423.4z"/>
		<path class="st1" d="M-8382.2-4421.5h-0.8v-5.4h-7.1v5.4h-0.8v-11.3h0.8v5.3h7.1v-5.3h0.8V-4421.5z"/>
		<path class="st1" d="M-8362.3-4427.1c0,0.9-0.1,1.7-0.4,2.4c-0.3,0.7-0.6,1.3-1.1,1.8s-1,0.9-1.7,1.2c-0.7,0.3-1.4,0.4-2.2,0.4
			s-1.5-0.1-2.2-0.4s-1.2-0.7-1.7-1.2s-0.8-1.1-1.1-1.8s-0.4-1.5-0.4-2.4s0.1-1.7,0.4-2.4s0.6-1.3,1.1-1.8s1-0.9,1.7-1.2
			s1.4-0.4,2.2-0.4s1.5,0.1,2.2,0.4s1.2,0.7,1.7,1.2s0.8,1.1,1.1,1.8C-8362.4-4428.8-8362.3-4428-8362.3-4427.1z M-8363.2-4427.1
			c0-0.8-0.1-1.5-0.3-2.1s-0.5-1.2-0.9-1.6s-0.9-0.8-1.4-1c-0.6-0.2-1.2-0.3-1.9-0.3s-1.3,0.1-1.8,0.3c-0.6,0.2-1,0.6-1.4,1
			s-0.7,1-0.9,1.6s-0.3,1.3-0.3,2.1c0,0.8,0.1,1.5,0.3,2.1s0.5,1.2,0.9,1.6s0.9,0.8,1.4,1c0.6,0.2,1.2,0.3,1.8,0.3
			c0.7,0,1.3-0.1,1.9-0.3c0.6-0.2,1-0.6,1.4-1s0.7-1,0.9-1.6S-8363.2-4426.3-8363.2-4427.1z"/>
		<path class="st1" d="M-8343.1-4427.1c0,0.9-0.1,1.7-0.4,2.4s-0.6,1.3-1.1,1.8s-1,0.9-1.7,1.2c-0.7,0.3-1.4,0.4-2.2,0.4
			s-1.5-0.1-2.2-0.4s-1.2-0.7-1.7-1.2s-0.8-1.1-1.1-1.8c-0.3-0.7-0.4-1.5-0.4-2.4s0.1-1.7,0.4-2.4c0.3-0.7,0.6-1.3,1.1-1.8
			s1-0.9,1.7-1.2c0.7-0.3,1.4-0.4,2.2-0.4s1.5,0.1,2.2,0.4s1.2,0.7,1.7,1.2s0.8,1.1,1.1,1.8S-8343.1-4428-8343.1-4427.1z
			 M-8344-4427.1c0-0.8-0.1-1.5-0.3-2.1s-0.5-1.2-0.9-1.6s-0.9-0.8-1.4-1c-0.6-0.2-1.2-0.3-1.9-0.3s-1.3,0.1-1.8,0.3
			c-0.6,0.2-1,0.6-1.4,1s-0.7,1-0.9,1.6s-0.3,1.3-0.3,2.1c0,0.8,0.1,1.5,0.3,2.1s0.5,1.2,0.9,1.6s0.9,0.8,1.4,1
			c0.6,0.2,1.2,0.3,1.8,0.3c0.7,0,1.3-0.1,1.9-0.3c0.6-0.2,1-0.6,1.4-1s0.7-1,0.9-1.6S-8344-4426.3-8344-4427.1z"/>
		<path class="st1" d="M-8333.3-4422.2h5.4v0.7h-6.2v-11.3h0.8V-4422.2z"/>
	</g>
	<g class="st0">
		<path class="st1" d="M-8317.6-4425.5v4h-2.4v-11.6h3.9c0.8,0,1.5,0.1,2.1,0.3c0.6,0.2,1.1,0.4,1.4,0.8s0.6,0.7,0.8,1.2
			s0.3,1,0.3,1.5c0,0.6-0.1,1.1-0.3,1.6s-0.5,0.9-0.8,1.2c-0.4,0.3-0.9,0.6-1.4,0.8c-0.6,0.2-1.3,0.3-2,0.3L-8317.6-4425.5
			L-8317.6-4425.5z M-8317.6-4427.3h1.5c0.8,0,1.3-0.2,1.7-0.5s0.5-0.9,0.5-1.5c0-0.3,0-0.6-0.1-0.8c-0.1-0.2-0.2-0.4-0.4-0.6
			s-0.4-0.3-0.7-0.4s-0.6-0.1-1-0.1h-1.5V-4427.3z"/>
		<path class="st1" d="M-8301.1-4421.5h-2.4v-11.6h2.4V-4421.5z"/>
		<path class="st1" d="M-8284.4-4424.3c0.1,0,0.2,0,0.3,0.1l1,1c-0.5,0.6-1.1,1.1-1.7,1.4s-1.5,0.5-2.5,0.5c-0.9,0-1.7-0.1-2.3-0.4
			c-0.7-0.3-1.3-0.7-1.8-1.2s-0.9-1.2-1.1-1.9c-0.3-0.7-0.4-1.5-0.4-2.4c0-0.6,0.1-1.1,0.2-1.6c0.1-0.5,0.3-1,0.5-1.4
			s0.5-0.8,0.9-1.2c0.3-0.4,0.7-0.7,1.1-0.9c0.4-0.2,0.9-0.4,1.4-0.6s1-0.2,1.6-0.2c0.4,0,0.8,0,1.2,0.1s0.7,0.2,1.1,0.3
			c0.3,0.1,0.6,0.3,0.9,0.5s0.5,0.4,0.8,0.6l-0.8,1.1c0,0.1-0.1,0.1-0.2,0.2c-0.1,0.1-0.2,0.1-0.3,0.1s-0.3,0-0.4-0.1
			c-0.1-0.1-0.3-0.2-0.5-0.3c-0.2-0.1-0.4-0.2-0.7-0.3s-0.6-0.1-1.1-0.1s-0.9,0.1-1.3,0.3s-0.8,0.4-1,0.8c-0.3,0.3-0.5,0.7-0.7,1.2
			s-0.2,1-0.2,1.7c0,0.6,0.1,1.2,0.3,1.7s0.4,0.9,0.7,1.2c0.3,0.3,0.7,0.6,1.1,0.8c0.4,0.2,0.8,0.3,1.3,0.3c0.3,0,0.5,0,0.7,0
			s0.4-0.1,0.6-0.1c0.2-0.1,0.4-0.1,0.5-0.2s0.3-0.2,0.5-0.4c0.1,0,0.1-0.1,0.2-0.1C-8284.5-4424.3-8284.5-4424.3-8284.4-4424.3z"/>
		<path class="st1" d="M-8272.9-4428.3h0.5c0.4,0,0.7-0.1,0.9-0.4l2.9-3.9c0.1-0.2,0.3-0.3,0.5-0.4s0.4-0.1,0.6-0.1h2.1l-3.7,4.8
			c-0.2,0.3-0.5,0.5-0.7,0.7c0.2,0.1,0.4,0.2,0.5,0.3c0.1,0.1,0.3,0.3,0.4,0.5l3.8,5.4h-2.1c-0.1,0-0.3,0-0.4,0
			c-0.1,0-0.2-0.1-0.3-0.1s-0.1-0.1-0.2-0.1c-0.1-0.1-0.1-0.1-0.2-0.2l-3-4.2c-0.1-0.1-0.2-0.2-0.4-0.3c-0.1-0.1-0.3-0.1-0.6-0.1
			h-0.7v5h-2.4v-11.6h2.4v4.7H-8272.9z"/>
		<path class="st1" d="M-8250.4-4433.1v1.9h-5v3h3.9v1.8h-3.9v3h5v1.9h-7.4v-11.6L-8250.4-4433.1L-8250.4-4433.1z"/>
		<path class="st1" d="M-8239.8-4425.9v4.4h-2.4v-11.6h3.6c0.8,0,1.5,0.1,2.1,0.3c0.6,0.2,1,0.4,1.4,0.7c0.4,0.3,0.6,0.7,0.8,1.1
			s0.3,0.9,0.3,1.4c0,0.4-0.1,0.7-0.2,1.1s-0.3,0.7-0.5,0.9c-0.2,0.3-0.5,0.5-0.8,0.8c-0.3,0.2-0.7,0.4-1,0.5
			c0.2,0.1,0.3,0.2,0.4,0.3c0.1,0.1,0.3,0.3,0.4,0.4l2.7,4.2h-2.2c-0.4,0-0.7-0.2-0.9-0.5l-2.2-3.6c-0.1-0.1-0.2-0.2-0.3-0.3
			c-0.1-0.1-0.3-0.1-0.5-0.1L-8239.8-4425.9L-8239.8-4425.9z M-8239.8-4427.6h1.2c0.4,0,0.7,0,1-0.1s0.5-0.2,0.7-0.4
			c0.2-0.2,0.3-0.4,0.4-0.6c0.1-0.2,0.1-0.5,0.1-0.8c0-0.5-0.2-1-0.5-1.3c-0.4-0.3-0.9-0.5-1.7-0.5h-1.2V-4427.6z"/>
	</g>
	<g id="Icon" transform="translate(-419.746 -514.457)">
		<path id="Path_160" class="st2" d="M-8064.8-3919.4c2.7-0.8,5.5-0.8,8.2,0l0.3-1.2c-2.9-0.9-6-0.9-8.9,0L-8064.8-3919.4z"/>
		<path id="Path_161" class="st2" d="M-8065.1-3916.2l0.3,1.2c2.7-0.8,5.5-0.8,8.2,0l0.4-1.2
			C-8059.1-3917-8062.1-3917-8065.1-3916.2z"/>
		<path id="Path_162" class="st2" d="M-8065.1-3911.8l0.3,1.2c2.7-0.8,5.5-0.8,8.2,0l0.4-1.2
			C-8059.1-3912.7-8062.2-3912.7-8065.1-3911.8z"/>
		<path id="Path_163" class="st2" d="M-8065.2-3907.5l0.4,1.2c2.7-0.8,5.5-0.8,8.2,0l0.3-1.2
			C-8059.2-3908.3-8062.2-3908.3-8065.2-3907.5z"/>
		<path id="Path_164" class="st2" d="M-8051.4-3920.6l0.4,1.2c2.7-0.8,5.5-0.8,8.2,0l0.3-1.2
			C-8045.4-3921.5-8048.5-3921.5-8051.4-3920.6z"/>
		<path id="Path_165" class="st2" d="M-8051.4-3916.2l0.3,1.2c2.7-0.8,5.5-0.8,8.2,0l0.3-1.2
			C-8045.4-3917.1-8048.5-3917.1-8051.4-3916.2z"/>
		<path id="Path_166" class="st2" d="M-8051.4-3911.9l0.4,1.2c2.7-0.8,5.5-0.8,8.2,0l0.3-1.2
			C-8045.4-3912.8-8048.5-3912.8-8051.4-3911.9z"/>
		<path id="Path_167" class="st2" d="M-8039.9-3924c-2.3-0.9-4.7-1.4-7.1-1.5c-2.4,0.1-4.7,0.5-6.9,1.4c-2.2-0.9-4.5-1.3-6.9-1.4
			c-2.4,0-4.9,0.6-7.1,1.5c-0.2,0.1-0.4,0.3-0.4,0.6v21.8c0,0.6,0.6,0.6,0.8,0.6c2.1-0.9,4.4-1.4,6.7-1.4c2.3,0.1,4.6,0.5,6.7,1.4
			h0.4c0.9-0.3,1.7-0.6,2.6-0.9c0.2,0.3,0.4,0.6,0.7,0.8c1.6,1.6,4.2,1.8,6,0.4l3.8,3.8l0.9-0.9l-3.8-3.8c0.1-0.2,0.2-0.3,0.3-0.5
			l3,1c0.3,0.1,0.6,0,0.8-0.3c0-0.1,0.1-0.2,0-0.3v-21.8C-8039.5-3923.7-8039.6-3924-8039.9-3924z M-8054.5-3902.5
			c-2-0.8-4.1-1.2-6.3-1.2c-2.2,0.1-4.3,0.5-6.3,1.2v-20.5c4-1.7,8.6-1.7,12.6,0L-8054.5-3902.5L-8054.5-3902.5z M-8049.5-3902
			c-1.3-1.3-1.3-3.5,0-4.8s3.5-1.3,4.8,0s1.3,3.5,0,4.8S-8048.1-3900.7-8049.5-3902L-8049.5-3902z M-8040.7-3902.5
			c-0.5-0.2-1.4-0.4-2.1-0.6c0.4-1.6,0-3.3-1.2-4.5c-1.8-1.8-4.7-1.8-6.5,0c-1.2,1.2-1.7,3-1.1,4.6c-0.5,0.2-1.3,0.4-1.8,0.6v-20.5
			c2-0.8,4.2-1.3,6.4-1.3c2.1,0.1,4.2,0.5,6.2,1.3v20.4H-8040.7z"/>
	</g>
</g>
</svg>
