<svg xmlns="http://www.w3.org/2000/svg" viewBox="0 0 28.91 28.6"><defs><style>.cls-1{fill:#273246;}</style></defs><title>SP_LogoIcon_Blue</title><g id="Layer_2" data-name="Layer 2"><g id="Layer_1-2" data-name="Layer 1"><g id="Logo"><g id="Group_7" data-name="Group 7"><path id="Path_1" data-name="Path 1" class="cls-1" d="M3.5,6.1a14.31,14.31,0,0,1,8.2,0L12,4.9a15,15,0,0,0-8.9,0Z"/><path id="Path_2" data-name="Path 2" class="cls-1" d="M3.2,9.3l.3,1.2a14.31,14.31,0,0,1,8.2,0l.4-1.2A16.8,16.8,0,0,0,3.2,9.3Z"/><path id="Path_3" data-name="Path 3" class="cls-1" d="M3.2,13.7l.3,1.2a14.31,14.31,0,0,1,8.2,0l.4-1.2A15,15,0,0,0,3.2,13.7Z"/><path id="Path_4" data-name="Path 4" class="cls-1" d="M3.1,18l.4,1.2a14.31,14.31,0,0,1,8.2,0L12,18A16.8,16.8,0,0,0,3.1,18Z"/><path id="Path_5" data-name="Path 5" class="cls-1" d="M16.9,4.9l.4,1.2a14.31,14.31,0,0,1,8.2,0l.3-1.2A15,15,0,0,0,16.9,4.9Z"/><path id="Path_6" data-name="Path 6" class="cls-1" d="M16.9,9.3l.3,1.2a14.31,14.31,0,0,1,8.2,0l.3-1.2A14.68,14.68,0,0,0,16.9,9.3Z"/><path id="Path_7" data-name="Path 7" class="cls-1" d="M16.9,13.6l.4,1.2a14.31,14.31,0,0,1,8.2,0l.3-1.2A15,15,0,0,0,16.9,13.6Z"/><path id="Path_8" data-name="Path 8" class="cls-1" d="M28.4,1.5A21.52,21.52,0,0,0,21.3,0a20.06,20.06,0,0,0-6.9,1.4A20.06,20.06,0,0,0,7.5,0,19.24,19.24,0,0,0,.4,1.5a.67.67,0,0,0-.4.6V23.9c0,.6.6.6.8.6a18.67,18.67,0,0,1,6.7-1.4,19.09,19.09,0,0,1,6.7,1.4h.4a26.7,26.7,0,0,0,2.6-.9,2.7,2.7,0,0,0,.7.8,4.57,4.57,0,0,0,6,.4l3.8,3.8.9-.9-3.8-3.8c.1-.2.2-.3.3-.5l3,1a.57.57,0,0,0,.8-.6V2C28.8,1.8,28.7,1.5,28.4,1.5ZM13.8,23a17.77,17.77,0,0,0-6.3-1.2A20.33,20.33,0,0,0,1.2,23V2.5a15.91,15.91,0,0,1,12.6,0Zm5,.5a3.44,3.44,0,0,1,0-4.8,3.39,3.39,0,1,1,4.8,4.8,3.44,3.44,0,0,1-4.8,0Zm8.8-.5c-.5-.2-1.4-.4-2.1-.6a4.69,4.69,0,0,0-1.2-4.5,4.57,4.57,0,0,0-7.6,4.6c-.5.2-1.3.4-1.8.6V2.6a17.26,17.26,0,0,1,6.4-1.3,18.1,18.1,0,0,1,6.2,1.3V23Z"/></g></g></g></g></svg>