<svg xmlns="http://www.w3.org/2000/svg" viewBox="0 0 312.05 28.6"><defs><style>.cls-1{fill:#f8b238;}.cls-2{isolation:isolate;}.cls-3{fill:#fff;}</style></defs><title>SPBeta_Logo</title><g id="Layer_2" data-name="Layer 2"><g id="Layer_1-2" data-name="Layer 1"><g id="Icon"><path id="Path_160" data-name="Path 160" class="cls-1" d="M3.5,6.1a14.31,14.31,0,0,1,8.2,0L12,4.9a15,15,0,0,0-8.9,0Z"/><path id="Path_161" data-name="Path 161" class="cls-1" d="M3.2,9.3l.3,1.2a14.31,14.31,0,0,1,8.2,0l.4-1.2A16.8,16.8,0,0,0,3.2,9.3Z"/><path id="Path_162" data-name="Path 162" class="cls-1" d="M3.2,13.7l.3,1.2a14.31,14.31,0,0,1,8.2,0l.4-1.2A15,15,0,0,0,3.2,13.7Z"/><path id="Path_163" data-name="Path 163" class="cls-1" d="M3.1,18l.4,1.2a14.31,14.31,0,0,1,8.2,0L12,18A16.8,16.8,0,0,0,3.1,18Z"/><path id="Path_164" data-name="Path 164" class="cls-1" d="M16.9,4.9l.4,1.2a14.31,14.31,0,0,1,8.2,0l.3-1.2A15,15,0,0,0,16.9,4.9Z"/><path id="Path_165" data-name="Path 165" class="cls-1" d="M16.9,9.3l.3,1.2a14.31,14.31,0,0,1,8.2,0l.3-1.2A14.68,14.68,0,0,0,16.9,9.3Z"/><path id="Path_166" data-name="Path 166" class="cls-1" d="M16.9,13.6l.4,1.2a14.31,14.31,0,0,1,8.2,0l.3-1.2A15,15,0,0,0,16.9,13.6Z"/><path id="Path_167" data-name="Path 167" class="cls-1" d="M28.4,1.5A22,22,0,0,0,21.3,0a20.21,20.21,0,0,0-6.9,1.4A20.21,20.21,0,0,0,7.5,0,19.21,19.21,0,0,0,.4,1.5a.68.68,0,0,0-.4.6V23.9c0,.6.6.6.8.6a17.11,17.11,0,0,1,6.7-1.4,19.11,19.11,0,0,1,6.7,1.4h.4c.9-.3,1.7-.6,2.6-.9a2.7,2.7,0,0,0,.7.8,4.57,4.57,0,0,0,6,.4l3.8,3.8.9-.9-3.8-3.8c.1-.2.2-.3.3-.5l3,1a.67.67,0,0,0,.8-.3c0-.1.1-.2,0-.3V2C28.8,1.8,28.7,1.5,28.4,1.5ZM13.8,23a16.81,16.81,0,0,0-6.3-1.2A22,22,0,0,0,1.2,23V2.5a16.2,16.2,0,0,1,12.6,0V23Zm5,.5a3.39,3.39,0,1,1,4.8,0,3.44,3.44,0,0,1-4.8,0Zm8.8-.5c-.5-.2-1.4-.4-2.1-.6a4.69,4.69,0,0,0-1.2-4.5,4.59,4.59,0,0,0-6.5,0,4.39,4.39,0,0,0-1.1,4.6c-.5.2-1.3.4-1.8.6V2.6a17.41,17.41,0,0,1,6.4-1.3,19.09,19.09,0,0,1,6.2,1.3V23Z"/></g><g class="cls-2"><path class="cls-3" d="M70.25,9.1c0,.1-.1.1-.2.1a.37.37,0,0,1-.3-.1c-.1-.1-.3-.2-.4-.3a2.39,2.39,0,0,0-.7-.3,3,3,0,0,0-1-.2,3.59,3.59,0,0,0-1.1.2,2.18,2.18,0,0,0-.8.5,1.79,1.79,0,0,0-.5.7,2.35,2.35,0,0,0-.2.8,3,3,0,0,0,.2,1,1.7,1.7,0,0,0,.6.6,3.55,3.55,0,0,0,.9.4,4.18,4.18,0,0,1,1,.4,3,3,0,0,1,1,.4c.3.2.6.3.9.5a1.56,1.56,0,0,1,.6.8,2.17,2.17,0,0,1,.2,1.2,5.07,5.07,0,0,1-.2,1.3,3,3,0,0,1-1.8,1.8,6.64,6.64,0,0,1-1.5.3,3.81,3.81,0,0,1-1.9-.4,4.86,4.86,0,0,1-1.4-1.1l.2-.4c.1-.1.1-.1.2-.1a.31.31,0,0,1,.2.1c.1.1.2.1.3.2a1.38,1.38,0,0,0,.4.3,2.19,2.19,0,0,0,.5.3,1.45,1.45,0,0,0,.7.2,2.48,2.48,0,0,0,.9.1,5,5,0,0,0,1.2-.2,1.46,1.46,0,0,0,.9-.6,5.55,5.55,0,0,0,.6-.8,3.55,3.55,0,0,0,.2-1,3,3,0,0,0-.2-1,1.7,1.7,0,0,0-.6-.6,3.55,3.55,0,0,0-.9-.4l-1-.3a3,3,0,0,1-1-.4,4.05,4.05,0,0,1-.9-.5,1.56,1.56,0,0,1-.6-.8,2.17,2.17,0,0,1-.2-1.2,4.25,4.25,0,0,1,.2-1.1,2,2,0,0,1,.6-.9,2.07,2.07,0,0,1,1-.6,3.18,3.18,0,0,1,1.4-.2,4.15,4.15,0,0,1,1.6.3,3.81,3.81,0,0,1,1.3.9Z"/><path class="cls-3" d="M87.75,17.1c.1,0,.1,0,.1.1l.3.3a2.7,2.7,0,0,1-.8.7,4.05,4.05,0,0,1-.9.5,3.54,3.54,0,0,1-1.1.3,5.28,5.28,0,0,1-1.3.1,5.38,5.38,0,0,1-2.2-.4,5.23,5.23,0,0,1-1.7-1.2A5.44,5.44,0,0,1,79,15.7a6.05,6.05,0,0,1-.4-2.4,6.37,6.37,0,0,1,.4-2.4,5.44,5.44,0,0,1,1.1-1.8,5.67,5.67,0,0,1,1.8-1.2,5.56,5.56,0,0,1,2.3-.4,3.75,3.75,0,0,1,1.1.1,3.81,3.81,0,0,1,1,.3,5.94,5.94,0,0,1,.8.4c.2.1.5.4.8.6l-.2.4c0,.1-.1.1-.2.1a.31.31,0,0,1-.2-.1c-.1-.1-.2-.1-.3-.2s-.3-.2-.4-.3L86,8.5a1.88,1.88,0,0,0-.8-.2,3.08,3.08,0,0,0-1-.1,4.06,4.06,0,0,0-1.9.4,5.6,5.6,0,0,0-1.5,1,6.24,6.24,0,0,0-1,1.6,6.65,6.65,0,0,0-.3,2.1,6.65,6.65,0,0,0,.3,2.1,3.36,3.36,0,0,0,1,1.6,6.08,6.08,0,0,0,1.4,1,5.66,5.66,0,0,0,1.8.3,3.75,3.75,0,0,0,1.1-.1c.3-.1.6-.1.9-.2a1.61,1.61,0,0,0,.7-.4c.2-.2.5-.3.7-.5a.19.19,0,0,0,.3,0Z"/><path class="cls-3" d="M105.85,19H105V13.6h-7.1V19h-.8V7.7h.8V13H105V7.7h.8Z"/><path class="cls-3" d="M125.75,13.4a6.05,6.05,0,0,1-.4,2.4,5.44,5.44,0,0,1-1.1,1.8,5.23,5.23,0,0,1-1.7,1.2,6.25,6.25,0,0,1-4.4,0,5.23,5.23,0,0,1-1.7-1.2,5.44,5.44,0,0,1-1.1-1.8,6.05,6.05,0,0,1-.4-2.4,6.05,6.05,0,0,1,.4-2.4,5.44,5.44,0,0,1,1.1-1.8,5.23,5.23,0,0,1,1.7-1.2,6.25,6.25,0,0,1,4.4,0,5.23,5.23,0,0,1,1.7,1.2,5.44,5.44,0,0,1,1.1,1.8A6.05,6.05,0,0,1,125.75,13.4Zm-.9,0a6.65,6.65,0,0,0-.3-2.1,4.17,4.17,0,0,0-.9-1.6,4.51,4.51,0,0,0-1.4-1,5.82,5.82,0,0,0-1.9-.3,4.84,4.84,0,0,0-1.8.3,3.59,3.59,0,0,0-1.4,1,4.17,4.17,0,0,0-.9,1.6,6.65,6.65,0,0,0-.3,2.1,6.65,6.65,0,0,0,.3,2.1,4.17,4.17,0,0,0,.9,1.6,4.51,4.51,0,0,0,1.4,1,5.66,5.66,0,0,0,1.8.3,5.82,5.82,0,0,0,1.9-.3,3.59,3.59,0,0,0,1.4-1,4.17,4.17,0,0,0,.9-1.6A6.65,6.65,0,0,0,124.85,13.4Z"/><path class="cls-3" d="M144.95,13.4a6.05,6.05,0,0,1-.4,2.4,5.44,5.44,0,0,1-1.1,1.8,5.23,5.23,0,0,1-1.7,1.2,6.25,6.25,0,0,1-4.4,0,5.23,5.23,0,0,1-1.7-1.2,5.44,5.44,0,0,1-1.1-1.8,6.05,6.05,0,0,1-.4-2.4,6.05,6.05,0,0,1,.4-2.4,5.44,5.44,0,0,1,1.1-1.8,5.23,5.23,0,0,1,1.7-1.2,6.25,6.25,0,0,1,4.4,0,5.23,5.23,0,0,1,1.7,1.2,5.44,5.44,0,0,1,1.1,1.8A6.05,6.05,0,0,1,144.95,13.4Zm-.9,0a6.65,6.65,0,0,0-.3-2.1,4.17,4.17,0,0,0-.9-1.6,4.51,4.51,0,0,0-1.4-1,5.82,5.82,0,0,0-1.9-.3,4.84,4.84,0,0,0-1.8.3,3.59,3.59,0,0,0-1.4,1,4.17,4.17,0,0,0-.9,1.6,6.65,6.65,0,0,0-.3,2.1,6.65,6.65,0,0,0,.3,2.1,4.17,4.17,0,0,0,.9,1.6,4.51,4.51,0,0,0,1.4,1,5.66,5.66,0,0,0,1.8.3,5.82,5.82,0,0,0,1.9-.3,3.59,3.59,0,0,0,1.4-1,4.17,4.17,0,0,0,.9-1.6A6.65,6.65,0,0,0,144,13.4Z"/><path class="cls-3" d="M154.75,18.3h5.4V19h-6.2V7.7h.8Z"/></g><g class="cls-2"><path class="cls-3" d="M170.45,15v4H168V7.4h3.9a6.65,6.65,0,0,1,2.1.3,2.73,2.73,0,0,1,1.4.8,5,5,0,0,1,.8,1.2,4,4,0,0,1,.3,1.5,4.15,4.15,0,0,1-.3,1.6,3.6,3.6,0,0,1-.8,1.2,6.38,6.38,0,0,1-1.4.8,6.45,6.45,0,0,1-2,.3l-1.6-.1Zm0-1.8h1.5a2.65,2.65,0,0,0,1.7-.5,1.84,1.84,0,0,0,.5-1.5,2,2,0,0,0-.1-.8,2.09,2.09,0,0,0-.4-.6,1.61,1.61,0,0,0-.7-.4,3.08,3.08,0,0,0-1-.1h-1.5Z"/><path class="cls-3" d="M186.95,19h-2.4V7.4h2.4Z"/><path class="cls-3" d="M203.65,16.2a.37.37,0,0,1,.3.1l1,1a5.52,5.52,0,0,1-1.7,1.4,5.83,5.83,0,0,1-2.5.5,5.27,5.27,0,0,1-2.3-.4,5.67,5.67,0,0,1-1.8-1.2,4.53,4.53,0,0,1-1.1-1.9,6.05,6.05,0,0,1-.4-2.4,7.77,7.77,0,0,1,.2-1.6,5.78,5.78,0,0,1,.5-1.4,4.7,4.7,0,0,1,.9-1.2,3.13,3.13,0,0,1,1.1-.9c.4-.2.9-.4,1.4-.6a4.14,4.14,0,0,1,1.6-.2,4.87,4.87,0,0,1,1.2.1l1.1.3a4.05,4.05,0,0,1,.9.5c.3.2.5.4.8.6L204,10c0,.1-.1.1-.2.2a.37.37,0,0,1-.3.1.6.6,0,0,1-.4-.1,2.19,2.19,0,0,0-.5-.3,4.87,4.87,0,0,0-.7-.3,3.42,3.42,0,0,0-1.1-.1,2.77,2.77,0,0,0-1.3.3,2,2,0,0,0-1,.8,3.46,3.46,0,0,0-.7,1.2,4.42,4.42,0,0,0-.2,1.7,4.67,4.67,0,0,0,.3,1.7,3.46,3.46,0,0,0,.7,1.2,4.44,4.44,0,0,0,1.1.8,2.77,2.77,0,0,0,1.3.3h.7c.2,0,.4-.1.6-.1s.4-.1.5-.2.3-.2.5-.4c.1,0,.1-.1.2-.1C203.55,16.2,203.55,16.2,203.65,16.2Z"/><path class="cls-3" d="M215.15,12.2h.5a1,1,0,0,0,.9-.4l2.9-3.9a1,1,0,0,1,.5-.4,1.27,1.27,0,0,1,.6-.1h2.1l-3.7,4.8a4.62,4.62,0,0,1-.7.7,1.73,1.73,0,0,1,.9.8l3.8,5.4h-2.5c-.1,0-.2-.1-.3-.1s-.1-.1-.2-.1l-.2-.2-3-4.2a1.38,1.38,0,0,0-.4-.3c-.1-.1-.3-.1-.6-.1H215v5h-2.4V7.5H215v4.7Z"/><path class="cls-3" d="M237.65,7.4V9.3h-5v3h3.9v1.8h-3.9v3h5V19h-7.4V7.4Z"/><path class="cls-3" d="M248.25,14.6V19h-2.4V7.4h3.6a6.65,6.65,0,0,1,2.1.3,4.58,4.58,0,0,1,1.4.7,2.84,2.84,0,0,1,.8,1.1,3.19,3.19,0,0,1,.3,1.4,4.25,4.25,0,0,1-.2,1.1,1.93,1.93,0,0,1-.5.9,6,6,0,0,1-.8.8,4.67,4.67,0,0,1-1,.5,1.38,1.38,0,0,1,.4.3l.4.4,2.7,4.2h-2.2a1.05,1.05,0,0,1-.9-.5l-2.2-3.6-.3-.3a.75.75,0,0,0-.5-.1Zm0-1.7h1.2a3.08,3.08,0,0,0,1-.1,1.61,1.61,0,0,0,.7-.4,2.09,2.09,0,0,0,.4-.6,2,2,0,0,0,.1-.8,1.9,1.9,0,0,0-.5-1.3,2.65,2.65,0,0,0-1.7-.5h-1.2Z"/></g><path class="cls-3" d="M276,13.87a.42.42,0,0,0-.34-.11h-1.47v1.59h1c.23,0,.34,0,.45-.11s.23-.11.34-.23.11-.11.11-.23v-.68A.4.4,0,0,0,276,13.87Z"/><path class="cls-3" d="M275.77,12.73c.23-.11.23-.34.23-.57a.67.67,0,0,0-.23-.57,1.32,1.32,0,0,0-.79-.23h-.91V13h.79A1.76,1.76,0,0,0,275.77,12.73Z"/><path class="cls-3" d="M299.8,11.83c0-.11-.11-.23-.11-.34,0,.11-.11.23-.11.34s-.11.23-.11.34L298.78,14h1.7l-.68-1.81A.21.21,0,0,0,299.8,11.83Z"/><path class="cls-3" d="M306.15,7.4H268.74a5.89,5.89,0,0,0,0,11.79h37.41A5.93,5.93,0,0,0,312,13.3,6,6,0,0,0,306.15,7.4ZM277,15a1.56,1.56,0,0,1-.34.45,2.48,2.48,0,0,1-.57.34,1.93,1.93,0,0,1-.79.11h-2V10.47h1.93a2.21,2.21,0,0,1,.91.11c.23.11.45.11.57.34a1.56,1.56,0,0,1,.34.45,1,1,0,0,1,.11.57v.34c0,.11-.11.23-.23.34s-.23.23-.34.23-.23.11-.45.23a1.16,1.16,0,0,1,1.13,1.25C277.13,14.66,277.13,14.89,277,15Zm8.28-3.63h-2.38v1.47h1.93v.79h-1.93v1.59h2.38V16h-3.4V10.58h3.4Zm8.5,0h-1.7V16h-1V11.37h-1.59v-.79h4.31v.79ZM301.62,16c-.11,0-.11,0-.23-.11l-.11-.11-.45-1.13h-2.27l-.45,1.13a.11.11,0,0,1-.11.11c-.11,0-.11.11-.23.11H297l2.15-5.44h1L302.3,16Z"/></g></g></svg>