<svg xmlns="http://www.w3.org/2000/svg" viewBox="9506.913 7920 29.061 29.404">
  <defs>
    <style>
      .cls-1 {
        fill: none;
        stroke: #fff;
        stroke-width: 2px;
      }
    </style>
  </defs>
  <path id="Star_White" class="cls-1" d="M14.394.194,18.9,9.2a.484.484,0,0,0,.45.45h6.983a.632.632,0,0,1,.45,1.126L20.7,16.186c-.225,0-.45.676-.225.9l3.153,9.46c.225.676-.45,1.126-1.126.676l-8.559-6.082a.422.422,0,0,0-.676,0L4.709,27c-.45.45-1.351-.225-1.126-.676l3.153-9.46a.827.827,0,0,0-.225-.676L.2,10.78c-.45-.225,0-1.126.45-1.126H7.862c.225,0,.45-.225.676-.45l4.5-9.01A1.436,1.436,0,0,1,14.394.194Z" transform="translate(9507.94 7920.975)"/>
</svg>
