<?xml version="1.0" encoding="utf-8"?>
<!-- Generator: Adobe Illustrator 21.0.2, SVG Export Plug-In . SVG Version: 6.00 Build 0)  -->
<svg version="1.1" id="Layer_1" xmlns="http://www.w3.org/2000/svg" xmlns:xlink="http://www.w3.org/1999/xlink" x="0px" y="0px"
	 viewBox="0 0 13 13" style="enable-background:new 0 0 13 13;" xml:space="preserve">
<style type="text/css">
	.st0{fill:#1A2C49;}
</style>
<path id="Path_48" class="st0" d="M6.9,0.5l2,4C8.9,4.6,9,4.7,9.1,4.7h3.1c0.3,0,0.4,0.3,0.2,0.5L9.7,7.6C9.6,7.6,9.5,7.8,9.6,7.9
	l1.4,4.2c0.1,0.3-0.2,0.5-0.5,0.3L6.7,9.8c-0.1-0.1-0.2-0.1-0.3,0l-3.8,2.6c-0.2,0.2-0.6-0.1-0.5-0.3l1.4-4.2c0-0.1,0-0.2-0.1-0.3
	L0.6,5.2C0.4,5.1,0.6,4.7,0.8,4.7H4c0.1,0,0.2-0.1,0.3-0.2l2-4C6.4,0.3,6.8,0.3,6.9,0.5z"/>
</svg>
