<svg xmlns="http://www.w3.org/2000/svg" viewBox="4296.002 411.522 13 13">
  <defs>
    <style>
      .cls-1 {
        fill: none;
        stroke: #1a2c49;
        stroke-linejoin: round;
        stroke-miterlimit: 10;
      }
    </style>
  </defs>
  <g id="Website" transform="translate(4033.166 489.256)">
    <path id="Path_437" data-name="Path 437" class="cls-1" d="M12.5,6.478A6.02,6.02,0,0,1,6.483,12.5,6.085,6.085,0,0,1,.5,6.37,5.867,5.867,0,0,1,6.242.506L6.5.5a5.965,5.965,0,0,1,6,5.978ZM6.242.506c-3.13,3.391-3.13,7.816,0,11.99M6.763.506c3.13,3.391,3.13,7.814,0,11.988M1.283,9.359H11.75M1.494,3.1H11.44M.5,6.228H12.468" transform="translate(262.836 -77.734)"/>
  </g>
</svg>
